<svg xmlns="http://www.w3.org/2000/svg" xmlns:xlink="http://www.w3.org/1999/xlink" width="1366" zoomAndPan="magnify" viewBox="0 0 1024.5 576" height="768" preserveAspectRatio="xMidYMid meet" version="1.0"><defs><filter x="0%" y="0%" width="100%" height="100%" id="875307ce66"><feColorMatrix values="0 0 0 0 1 0 0 0 0 1 0 0 0 0 1 0 0 0 1 0" color-interpolation-filters="sRGB"/></filter><mask id="b77e0c0226"><g filter="url(#875307ce66)"><rect x="-102.45" width="1229.4" fill="#000000" y="-57.6" height="691.2" fill-opacity="0.07"/></g></mask><clipPath id="3a1248810a"><path d="M 0 51 L 215 51 L 215 328 L 0 328 Z M 0 51 " clip-rule="nonzero"/></clipPath><clipPath id="d939b7538d"><path d="M 0 339 L 98 339 L 98 398.421875 L 0 398.421875 Z M 0 339 " clip-rule="nonzero"/></clipPath><clipPath id="6ff8209ac9"><path d="M 0 106 L 39 106 L 39 240 L 0 240 Z M 0 106 " clip-rule="nonzero"/></clipPath><clipPath id="5165cc50ac"><path d="M 0 3.363281 L 25 3.363281 L 25 100 L 0 100 Z M 0 3.363281 " clip-rule="nonzero"/></clipPath><clipPath id="1459d1b6ce"><rect x="0" width="217" y="0" height="403"/></clipPath></defs><g mask="url(#b77e0c0226)"><g transform="matrix(1, 0, 0, 1, 0, 87)"><g clip-path="url(#1459d1b6ce)"><g clip-path="url(#3a1248810a)"><path fill="#ffffff" d="M 204.757812 51.097656 L 146.976562 51.097656 C 152.835938 57.378906 153.257812 67.425781 147.8125 74.125 L 147.394531 74.964844 L 190.523438 74.964844 L 190.523438 276.785156 L -159.523438 276.785156 L -159.523438 74.964844 L -82.0625 74.964844 L -84.992188 67.007812 C -86.667969 61.566406 -85.832031 55.703125 -82.480469 51.097656 L -173.761719 51.097656 C -179.203125 51.097656 -183.390625 55.285156 -183.390625 60.726562 L -183.390625 317.402344 C -183.390625 322.84375 -179.203125 327.03125 -173.761719 327.03125 L 204.757812 327.03125 C 210.203125 327.03125 214.390625 322.84375 214.390625 317.402344 L 214.390625 60.726562 C 214.390625 55.285156 210.203125 51.097656 204.757812 51.097656 Z M 15.5 314.050781 C 8.800781 314.050781 3.355469 308.609375 3.355469 301.910156 C 3.355469 295.207031 8.800781 289.765625 15.5 289.765625 C 22.199219 289.765625 27.640625 295.207031 27.640625 301.910156 C 27.640625 308.1875 22.199219 314.050781 15.5 314.050781 Z M 15.5 314.050781 " fill-opacity="1" fill-rule="nonzero"/></g><g clip-path="url(#d939b7538d)"><path fill="#ffffff" d="M 97.984375 385.652344 L 97.984375 394.863281 C 97.984375 396.957031 96.3125 398.632812 94.21875 398.632812 L -63.21875 398.632812 C -65.3125 398.632812 -66.988281 396.957031 -66.988281 394.863281 L -66.988281 385.652344 C -66.988281 383.558594 -65.3125 381.882812 -63.21875 381.882812 L -35.164062 381.882812 L -27.628906 339.59375 L 59.046875 339.59375 L 66.582031 381.882812 L 94.636719 381.882812 C 96.3125 381.882812 97.984375 383.558594 97.984375 385.652344 Z M 97.984375 385.652344 " fill-opacity="1" fill-rule="nonzero"/></g><path fill="#ffffff" d="M 147.394531 91.714844 L 137.34375 90.457031 C 133.578125 90.039062 130.226562 87.527344 128.550781 83.757812 C 127.296875 79.988281 127.714844 76.21875 129.808594 72.871094 L 136.089844 64.914062 C 136.925781 63.660156 136.925781 61.984375 135.671875 60.726562 L 125.203125 50.261719 C 123.945312 49.003906 122.269531 49.003906 121.015625 49.839844 L 113.058594 56.121094 C 110.128906 58.632812 105.941406 59.054688 102.171875 57.378906 C 98.40625 56.121094 95.890625 52.773438 95.472656 49.003906 L 95.054688 39.375 C 95.054688 37.699219 93.378906 36.441406 92.125 36.441406 L 77.050781 36.441406 C 75.375 36.441406 74.117188 37.699219 74.117188 39.375 L 72.863281 49.421875 C 72.445312 53.191406 69.933594 56.539062 66.164062 57.796875 C 62.394531 59.472656 58.625 59.054688 55.277344 56.539062 L 47.320312 50.261719 C 46.066406 49.421875 44.390625 49.421875 43.132812 50.679688 L 32.667969 61.148438 C 31.410156 62.402344 31.410156 64.078125 32.246094 65.332031 L 38.527344 73.289062 C 41.039062 76.21875 41.460938 80.40625 39.785156 84.175781 C 38.109375 87.945312 35.179688 90.457031 30.992188 90.875 L 20.941406 92.132812 C 19.265625 92.132812 18.011719 93.804688 18.011719 95.0625 L 18.011719 110.136719 C 18.011719 111.8125 19.265625 113.066406 20.941406 113.066406 L 30.992188 114.324219 C 34.761719 114.742188 38.109375 117.253906 39.785156 121.023438 C 41.460938 124.792969 40.621094 128.558594 38.527344 131.910156 L 32.246094 139.445312 C 31.410156 140.703125 31.410156 142.378906 32.667969 143.632812 L 43.132812 154.101562 C 44.390625 155.359375 46.066406 155.359375 47.320312 154.519531 L 55.277344 148.238281 C 58.207031 145.726562 62.394531 145.308594 66.164062 146.984375 C 69.933594 148.238281 72.445312 151.589844 72.863281 155.777344 L 74.117188 165.824219 C 74.117188 167.5 75.792969 168.757812 77.050781 168.757812 L 92.125 168.757812 C 93.796875 168.757812 95.054688 167.5 95.054688 165.824219 L 96.3125 155.777344 C 96.730469 152.007812 99.242188 148.660156 103.011719 146.984375 C 106.777344 145.308594 110.546875 145.726562 113.898438 148.238281 L 121.851562 154.519531 C 123.109375 155.359375 124.785156 155.359375 126.039062 154.101562 L 136.507812 143.632812 C 137.765625 142.378906 137.765625 140.703125 136.925781 139.445312 L 130.644531 131.492188 C 128.132812 128.558594 127.714844 124.371094 129.390625 120.605469 C 131.0625 116.835938 133.996094 114.324219 138.183594 113.90625 L 148.230469 112.648438 C 149.90625 112.230469 151.164062 110.972656 151.164062 109.71875 L 151.164062 94.644531 C 150.324219 92.96875 149.070312 91.714844 147.394531 91.714844 Z M 84.167969 131.070312 C 68.257812 131.070312 55.277344 118.09375 55.277344 102.179688 C 55.277344 86.269531 68.257812 73.289062 84.167969 73.289062 C 100.078125 73.289062 113.058594 86.269531 113.058594 102.179688 C 113.058594 118.09375 100.078125 131.070312 84.167969 131.070312 Z M 84.167969 131.070312 " fill-opacity="1" fill-rule="nonzero"/><path fill="#ffffff" d="M 84.167969 85.011719 C 74.539062 85.011719 67 92.550781 67 102.179688 C 67 111.8125 74.539062 119.347656 84.167969 119.347656 C 93.796875 119.347656 101.335938 111.8125 101.335938 102.179688 C 101.335938 92.550781 93.796875 85.011719 84.167969 85.011719 Z M 84.167969 85.011719 " fill-opacity="1" fill-rule="nonzero"/><g clip-path="url(#6ff8209ac9)"><path fill="#ffffff" d="M 33.921875 162.058594 L 23.875 160.800781 C 20.105469 160.382812 16.753906 157.871094 15.082031 154.101562 C 13.824219 150.332031 14.242188 146.566406 16.335938 143.214844 L 22.617188 135.257812 C 23.453125 134.003906 23.453125 132.328125 22.199219 131.070312 L 11.730469 120.605469 C 10.472656 119.347656 8.800781 119.347656 7.542969 120.1875 L -0.414062 126.464844 C -3.34375 128.980469 -7.53125 129.398438 -11.300781 127.722656 C -15.066406 126.464844 -17.578125 123.117188 -18 119.347656 L -19.253906 109.300781 C -19.253906 107.625 -20.929688 106.367188 -22.1875 106.367188 L -37.257812 106.367188 C -38.933594 106.367188 -40.191406 107.625 -40.191406 109.300781 L -41.445312 119.347656 C -41.867188 123.117188 -44.378906 126.464844 -48.144531 127.722656 C -51.914062 129.398438 -55.683594 128.980469 -59.03125 126.464844 L -66.988281 120.1875 C -68.246094 119.347656 -69.917969 119.347656 -71.175781 120.605469 L -80.804688 131.492188 C -82.0625 132.746094 -82.0625 134.421875 -81.226562 135.679688 L -74.945312 143.632812 C -72.429688 146.566406 -72.011719 150.75 -73.6875 154.519531 C -75.363281 158.289062 -78.292969 160.800781 -82.480469 161.21875 L -92.53125 162.476562 C -94.203125 162.476562 -95.460938 164.152344 -95.460938 165.40625 L -95.460938 180.480469 C -95.460938 182.15625 -94.203125 183.410156 -92.53125 183.410156 L -82.480469 184.667969 C -78.710938 185.085938 -75.363281 187.597656 -73.6875 191.367188 C -72.011719 195.136719 -72.851562 198.902344 -74.945312 202.253906 L -80.804688 209.789062 C -81.644531 211.046875 -81.644531 212.722656 -80.386719 213.976562 L -69.917969 224.445312 C -68.664062 225.703125 -66.988281 225.703125 -65.730469 224.863281 L -57.777344 218.582031 C -54.84375 216.070312 -50.660156 215.652344 -46.890625 217.328125 C -43.121094 218.582031 -40.609375 221.933594 -40.191406 226.121094 L -38.933594 236.171875 C -38.933594 237.84375 -37.257812 239.101562 -36.003906 239.101562 L -20.929688 239.101562 C -19.253906 239.101562 -18 237.84375 -18 236.171875 L -16.742188 226.121094 C -16.324219 222.351562 -13.8125 219.003906 -10.042969 217.328125 C -6.273438 215.652344 -2.507812 216.070312 0.84375 218.582031 L 8.800781 224.863281 C 10.054688 225.703125 11.730469 225.703125 12.988281 224.445312 L 23.453125 213.976562 C 24.710938 212.722656 24.710938 211.046875 23.875 209.789062 L 17.59375 201.835938 C 15.078125 198.902344 14.660156 194.71875 16.335938 190.949219 C 18.011719 187.179688 20.941406 184.667969 25.128906 184.25 L 35.179688 182.992188 C 36.851562 182.574219 38.109375 181.316406 38.109375 180.0625 L 38.109375 164.988281 C 36.851562 163.3125 35.597656 162.058594 33.921875 162.058594 Z M -28.886719 201.417969 C -44.796875 201.417969 -57.777344 188.4375 -57.777344 172.523438 C -57.777344 156.613281 -44.796875 143.632812 -28.886719 143.632812 C -12.972656 143.632812 0.0078125 156.613281 0.0078125 172.523438 C -0.414062 188.4375 -12.972656 201.417969 -28.886719 201.417969 Z M -28.886719 201.417969 " fill-opacity="1" fill-rule="nonzero"/></g><g clip-path="url(#5165cc50ac)"><path fill="#ffffff" d="M 21.359375 64.914062 L 15.082031 60.726562 C 12.566406 59.054688 11.3125 56.539062 11.730469 53.609375 C 11.730469 50.679688 13.40625 48.167969 16.335938 46.910156 L 23.035156 43.5625 C 23.875 43.140625 24.710938 41.886719 24.292969 40.628906 L 20.523438 30.160156 C 19.6875 29.742188 18.429688 28.90625 17.59375 29.324219 L 10.472656 31 C 7.542969 31.835938 5.03125 30.582031 2.9375 28.488281 C 0.84375 26.394531 0.425781 23.460938 1.261719 20.53125 L 3.773438 13.414062 C 4.195312 12.15625 3.773438 10.902344 2.519531 10.480469 L -7.53125 5.457031 C -8.367188 5.039062 -9.625 5.457031 -10.460938 6.292969 L -14.648438 12.574219 C -16.324219 15.085938 -18.835938 16.34375 -21.765625 15.925781 C -24.699219 15.925781 -27.210938 14.25 -28.464844 11.738281 L -31.816406 5.039062 C -32.234375 3.78125 -33.492188 3.363281 -34.746094 3.78125 L -45.214844 7.550781 C -46.472656 7.96875 -46.890625 9.226562 -46.890625 10.0625 L -45.214844 17.179688 C -44.796875 20.113281 -45.632812 22.625 -47.726562 24.71875 C -49.820312 26.8125 -52.75 27.230469 -55.683594 26.394531 L -62.800781 23.882812 C -64.058594 23.460938 -64.894531 23.882812 -65.730469 25.136719 L -70.339844 34.765625 C -70.757812 36.023438 -70.339844 36.859375 -69.5 37.699219 L -63.21875 41.886719 C -60.707031 43.5625 -59.453125 46.074219 -59.871094 49.003906 C -59.871094 51.933594 -61.546875 54.445312 -64.058594 55.703125 L -70.757812 59.054688 C -72.011719 59.472656 -72.429688 60.726562 -72.011719 61.984375 L -68.664062 72.453125 C -68.246094 73.707031 -66.988281 74.125 -66.152344 74.125 L -58.613281 72.453125 C -55.683594 71.613281 -53.171875 72.871094 -51.078125 74.964844 C -48.984375 77.058594 -48.566406 79.988281 -49.402344 82.917969 L -51.914062 90.039062 C -52.332031 91.292969 -51.914062 92.550781 -50.660156 92.96875 L -40.609375 97.992188 C -39.773438 98.414062 -38.097656 97.992188 -37.679688 97.15625 L -33.492188 90.875 C -31.816406 88.363281 -29.304688 87.105469 -26.371094 87.527344 C -23.441406 87.527344 -20.929688 89.199219 -19.671875 91.714844 L -16.324219 98.414062 C -15.90625 99.667969 -14.648438 100.085938 -13.394531 99.667969 L -2.925781 95.898438 C -1.667969 95.480469 -1.25 94.226562 -1.25 93.386719 L -2.925781 86.269531 C -3.761719 83.339844 -2.507812 80.828125 -0.414062 78.734375 C 1.679688 76.640625 4.613281 76.21875 7.542969 77.058594 L 14.660156 79.570312 C 15.917969 79.988281 16.753906 79.570312 17.59375 78.3125 L 22.199219 68.683594 C 22.617188 67.007812 22.199219 65.753906 21.359375 64.914062 Z M -33.074219 70.777344 C -43.539062 65.753906 -47.726562 53.191406 -42.703125 42.722656 C -37.679688 32.253906 -25.117188 28.066406 -14.648438 33.09375 C -4.179688 38.117188 0.0078125 50.679688 -5.019531 61.148438 C -10.042969 71.195312 -22.605469 75.800781 -33.074219 70.777344 Z M -33.074219 70.777344 " fill-opacity="1" fill-rule="nonzero"/></g></g></g></g></svg>