<svg xmlns="http://www.w3.org/2000/svg" xmlns:xlink="http://www.w3.org/1999/xlink" width="1366" zoomAndPan="magnify" viewBox="0 0 1024.5 576" height="768" preserveAspectRatio="xMidYMid meet" version="1.0"><defs><filter x="0%" y="0%" width="100%" height="100%" id="98e33422f0"><feColorMatrix values="0 0 0 0 1 0 0 0 0 1 0 0 0 0 1 0 0 0 1 0" color-interpolation-filters="sRGB"/></filter><mask id="301eaed0fd"><g filter="url(#98e33422f0)"><rect x="-102.45" width="1229.4" fill="#000000" y="-57.6" height="691.2" fill-opacity="0.07"/></g></mask><clipPath id="b3780e7cbd"><path d="M 0 61 L 411 61 L 411 396 L 0 396 Z M 0 61 " clip-rule="nonzero"/></clipPath><clipPath id="3f0b9ab095"><path d="M 70 410 L 271 410 L 271 481.699219 L 70 481.699219 Z M 70 410 " clip-rule="nonzero"/></clipPath><clipPath id="e2a4f64aa7"><path d="M 64 4.179688 L 182 4.179688 L 182 121 L 64 121 Z M 64 4.179688 " clip-rule="nonzero"/></clipPath><clipPath id="af5dd7f837"><rect x="0" width="414" y="0" height="487"/></clipPath></defs><g mask="url(#301eaed0fd)"><g transform="matrix(1, 0, 0, 1, 0, 45)"><g clip-path="url(#af5dd7f837)"><g clip-path="url(#b3780e7cbd)"><path fill="#ffffff" d="M 399.089844 61.859375 L 329.265625 61.859375 C 336.347656 69.449219 336.855469 81.59375 330.277344 89.691406 L 329.773438 90.703125 L 381.886719 90.703125 L 381.886719 334.578125 L -41.101562 334.578125 L -41.101562 90.703125 L 52.5 90.703125 L 48.960938 81.089844 C 46.933594 74.511719 47.949219 67.425781 51.996094 61.859375 L -58.304688 61.859375 C -64.882812 61.859375 -69.941406 66.921875 -69.941406 73.5 L -69.941406 383.65625 C -69.941406 390.234375 -64.882812 395.292969 -58.304688 395.292969 L 399.089844 395.292969 C 405.667969 395.292969 410.726562 390.234375 410.726562 383.65625 L 410.726562 73.5 C 410.726562 66.921875 405.667969 61.859375 399.089844 61.859375 Z M 170.390625 379.609375 C 162.296875 379.609375 155.71875 373.03125 155.71875 364.9375 C 155.71875 356.839844 162.296875 350.261719 170.390625 350.261719 C 178.488281 350.261719 185.066406 356.839844 185.066406 364.9375 C 185.066406 372.527344 178.488281 379.609375 170.390625 379.609375 Z M 170.390625 379.609375 " fill-opacity="1" fill-rule="nonzero"/></g><g clip-path="url(#3f0b9ab095)"><path fill="#ffffff" d="M 270.066406 466.128906 L 270.066406 477.261719 C 270.066406 479.792969 268.042969 481.816406 265.511719 481.816406 L 75.269531 481.816406 C 72.738281 481.816406 70.714844 479.792969 70.714844 477.261719 L 70.714844 466.128906 C 70.714844 463.601562 72.738281 461.578125 75.269531 461.578125 L 109.167969 461.578125 L 118.277344 410.472656 L 223.011719 410.472656 L 232.121094 461.578125 L 266.019531 461.578125 C 268.042969 461.578125 270.066406 463.601562 270.066406 466.128906 Z M 270.066406 466.128906 " fill-opacity="1" fill-rule="nonzero"/></g><path fill="#ffffff" d="M 329.773438 110.941406 L 317.628906 109.421875 C 313.074219 108.917969 309.027344 105.878906 307.003906 101.328125 C 305.484375 96.773438 305.992188 92.21875 308.519531 88.171875 L 316.109375 78.558594 C 317.121094 77.039062 317.121094 75.015625 315.605469 73.5 L 302.957031 60.847656 C 301.4375 59.332031 299.414062 59.332031 297.894531 60.34375 L 288.28125 67.933594 C 284.742188 70.96875 279.679688 71.476562 275.128906 69.449219 C 270.574219 67.933594 267.539062 63.886719 267.03125 59.332031 L 266.527344 47.695312 C 266.527344 45.671875 264.5 44.152344 262.984375 44.152344 L 244.769531 44.152344 C 242.746094 44.152344 241.226562 45.671875 241.226562 47.695312 L 239.710938 59.835938 C 239.203125 64.390625 236.167969 68.4375 231.613281 69.957031 C 227.058594 71.980469 222.507812 71.476562 218.457031 68.4375 L 208.84375 60.847656 C 207.328125 59.835938 205.304688 59.835938 203.785156 61.355469 L 191.136719 74.003906 C 189.617188 75.523438 189.617188 77.546875 190.628906 79.0625 L 198.21875 88.675781 C 201.253906 92.21875 201.761719 97.277344 199.738281 101.832031 C 197.714844 106.386719 194.171875 109.421875 189.113281 109.929688 L 176.96875 111.445312 C 174.945312 111.445312 173.425781 113.46875 173.425781 114.988281 L 173.425781 133.203125 C 173.425781 135.226562 174.945312 136.746094 176.96875 136.746094 L 189.113281 138.261719 C 193.667969 138.769531 197.714844 141.804688 199.738281 146.359375 C 201.761719 150.910156 200.75 155.464844 198.21875 159.511719 L 190.628906 168.621094 C 189.617188 170.136719 189.617188 172.164062 191.136719 173.679688 L 203.785156 186.328125 C 205.304688 187.847656 207.328125 187.847656 208.84375 186.835938 L 218.457031 179.246094 C 222 176.210938 227.058594 175.703125 231.613281 177.726562 C 236.167969 179.246094 239.203125 183.292969 239.710938 188.351562 L 241.226562 200.496094 C 241.226562 202.519531 243.25 204.039062 244.769531 204.039062 L 262.984375 204.039062 C 265.007812 204.039062 266.527344 202.519531 266.527344 200.496094 L 268.042969 188.351562 C 268.550781 183.800781 271.585938 179.75 276.140625 177.726562 C 280.691406 175.703125 285.246094 176.210938 289.292969 179.246094 L 298.90625 186.835938 C 300.425781 187.847656 302.449219 187.847656 303.96875 186.328125 L 316.617188 173.679688 C 318.132812 172.164062 318.132812 170.136719 317.121094 168.621094 L 309.53125 159.007812 C 306.496094 155.464844 305.992188 150.40625 308.015625 145.851562 C 310.039062 141.296875 313.582031 138.261719 318.640625 137.757812 L 330.785156 136.238281 C 332.808594 135.734375 334.324219 134.214844 334.324219 132.695312 L 334.324219 114.480469 C 333.3125 112.457031 331.796875 110.941406 329.773438 110.941406 Z M 253.371094 158.5 C 234.144531 158.5 218.457031 142.816406 218.457031 123.589844 C 218.457031 104.363281 234.144531 88.675781 253.371094 88.675781 C 272.597656 88.675781 288.28125 104.363281 288.28125 123.589844 C 288.28125 142.816406 272.597656 158.5 253.371094 158.5 Z M 253.371094 158.5 " fill-opacity="1" fill-rule="nonzero"/><path fill="#ffffff" d="M 253.371094 102.84375 C 241.734375 102.84375 232.625 111.953125 232.625 123.589844 C 232.625 135.226562 241.734375 144.335938 253.371094 144.335938 C 265.007812 144.335938 274.113281 135.226562 274.113281 123.589844 C 274.113281 111.953125 265.007812 102.84375 253.371094 102.84375 Z M 253.371094 102.84375 " fill-opacity="1" fill-rule="nonzero"/><path fill="#ffffff" d="M 192.652344 195.941406 L 180.511719 194.425781 C 175.957031 193.917969 171.910156 190.882812 169.886719 186.328125 C 168.367188 181.777344 168.875 177.222656 171.402344 173.175781 L 178.992188 163.5625 C 180.003906 162.042969 180.003906 160.019531 178.488281 158.5 L 165.839844 145.851562 C 164.320312 144.335938 162.296875 144.335938 160.777344 145.347656 L 151.164062 152.933594 C 147.621094 155.972656 142.5625 156.476562 138.007812 154.453125 C 133.457031 152.933594 130.421875 148.886719 129.914062 144.335938 L 128.394531 132.191406 C 128.394531 130.167969 126.371094 128.648438 124.855469 128.648438 L 106.640625 128.648438 C 104.617188 128.648438 103.097656 130.167969 103.097656 132.191406 L 101.578125 144.335938 C 101.074219 148.886719 98.039062 152.933594 93.484375 154.453125 C 88.929688 156.476562 84.378906 155.972656 80.328125 152.933594 L 70.714844 145.347656 C 69.199219 144.335938 67.175781 144.335938 65.65625 145.851562 L 54.019531 159.007812 C 52.5 160.523438 52.5 162.550781 53.511719 164.066406 L 61.101562 173.679688 C 64.136719 177.222656 64.644531 182.28125 62.621094 186.835938 C 60.597656 191.390625 57.054688 194.425781 51.996094 194.929688 L 39.851562 196.449219 C 37.828125 196.449219 36.308594 198.472656 36.308594 199.992188 L 36.308594 218.207031 C 36.308594 220.230469 37.828125 221.746094 39.851562 221.746094 L 51.996094 223.265625 C 56.546875 223.769531 60.597656 226.808594 62.621094 231.359375 C 64.644531 235.914062 63.632812 240.46875 61.101562 244.515625 L 54.019531 253.625 C 53.007812 255.140625 53.007812 257.164062 54.523438 258.683594 L 67.175781 271.332031 C 68.691406 272.851562 70.714844 272.851562 72.234375 271.839844 L 81.847656 264.25 C 85.390625 261.210938 90.449219 260.707031 95.003906 262.730469 C 99.554688 264.25 102.59375 268.296875 103.097656 273.355469 L 104.617188 285.5 C 104.617188 287.523438 106.640625 289.039062 108.15625 289.039062 L 126.371094 289.039062 C 128.394531 289.039062 129.914062 287.523438 129.914062 285.5 L 131.433594 273.355469 C 131.9375 268.800781 134.972656 264.753906 139.527344 262.730469 C 144.082031 260.707031 148.636719 261.210938 152.683594 264.25 L 162.296875 271.839844 C 163.8125 272.851562 165.835938 272.851562 167.355469 271.332031 L 180.003906 258.683594 C 181.523438 257.164062 181.523438 255.140625 180.511719 253.625 L 172.921875 244.011719 C 169.886719 240.46875 169.378906 235.410156 171.402344 230.855469 C 173.425781 226.300781 176.96875 223.265625 182.027344 222.757812 L 194.171875 221.242188 C 196.195312 220.734375 197.714844 219.21875 197.714844 217.699219 L 197.714844 199.484375 C 196.195312 197.460938 194.679688 195.941406 192.652344 195.941406 Z M 116.757812 243.503906 C 97.53125 243.503906 81.847656 227.820312 81.847656 208.59375 C 81.847656 189.367188 97.53125 173.679688 116.757812 173.679688 C 135.984375 173.679688 151.671875 189.363281 151.671875 208.59375 C 151.164062 227.820312 135.984375 243.503906 116.757812 243.503906 Z M 116.757812 243.503906 " fill-opacity="1" fill-rule="nonzero"/><path fill="#ffffff" d="M 116.757812 187.847656 C 105.121094 187.847656 96.015625 196.953125 96.015625 208.59375 C 96.015625 220.230469 105.121094 229.335938 116.757812 229.335938 C 128.394531 229.335938 137.503906 220.230469 137.503906 208.59375 C 137.503906 196.953125 128.394531 187.847656 116.757812 187.847656 Z M 116.757812 187.847656 " fill-opacity="1" fill-rule="nonzero"/><g clip-path="url(#e2a4f64aa7)"><path fill="#ffffff" d="M 177.476562 78.558594 L 169.886719 73.5 C 166.851562 71.476562 165.332031 68.4375 165.839844 64.898438 C 165.839844 61.355469 167.863281 58.320312 171.402344 56.800781 L 179.5 52.753906 C 180.511719 52.246094 181.523438 50.730469 181.015625 49.210938 L 176.464844 36.5625 C 175.453125 36.058594 173.933594 35.042969 172.921875 35.550781 L 164.320312 37.574219 C 160.777344 38.585938 157.742188 37.070312 155.210938 34.539062 C 152.683594 32.007812 152.175781 28.46875 153.1875 24.925781 L 156.222656 16.324219 C 156.730469 14.804688 156.222656 13.289062 154.707031 12.78125 L 142.5625 6.710938 C 141.550781 6.203125 140.035156 6.710938 139.023438 7.722656 L 133.960938 15.3125 C 131.9375 18.347656 128.902344 19.867188 125.359375 19.359375 C 121.820312 19.359375 118.78125 17.335938 117.265625 14.300781 L 113.21875 6.203125 C 112.710938 4.6875 111.191406 4.179688 109.675781 4.6875 L 97.027344 9.242188 C 95.507812 9.746094 95.003906 11.265625 95.003906 12.277344 L 97.027344 20.878906 C 97.53125 24.417969 96.519531 27.457031 93.992188 29.984375 C 91.460938 32.515625 87.917969 33.019531 84.378906 32.007812 L 75.777344 28.972656 C 74.257812 28.46875 73.246094 28.972656 72.234375 30.492188 L 66.667969 42.128906 C 66.164062 43.644531 66.667969 44.660156 67.679688 45.671875 L 75.269531 50.730469 C 78.304688 52.753906 79.824219 55.789062 79.316406 59.332031 C 79.316406 62.875 77.292969 65.910156 74.257812 67.425781 L 66.164062 71.476562 C 64.644531 71.980469 64.136719 73.5 64.644531 75.015625 L 68.691406 87.664062 C 69.199219 89.183594 70.714844 89.691406 71.726562 89.691406 L 80.835938 87.664062 C 84.378906 86.652344 87.414062 88.171875 89.941406 90.703125 C 92.472656 93.230469 92.976562 96.773438 91.964844 100.316406 L 88.929688 108.917969 C 88.425781 110.433594 88.929688 111.953125 90.449219 112.457031 L 102.59375 118.53125 C 103.605469 119.035156 105.628906 118.53125 106.132812 117.519531 L 111.191406 109.929688 C 113.21875 106.890625 116.253906 105.375 119.792969 105.878906 C 123.335938 105.878906 126.371094 107.90625 127.890625 110.941406 L 131.9375 119.035156 C 132.445312 120.554688 133.960938 121.058594 135.480469 120.554688 L 148.128906 116 C 149.648438 115.492188 150.152344 113.976562 150.152344 112.964844 L 148.128906 104.363281 C 147.117188 100.820312 148.636719 97.785156 151.164062 95.253906 C 153.695312 92.726562 157.238281 92.21875 160.777344 93.230469 L 169.378906 96.265625 C 170.898438 96.773438 171.910156 96.265625 172.921875 94.75 L 178.488281 83.113281 C 178.992188 81.089844 178.488281 79.570312 177.476562 78.558594 Z M 111.699219 85.640625 C 99.050781 79.570312 93.992188 64.390625 100.0625 51.742188 C 106.132812 39.09375 121.3125 34.03125 133.960938 40.105469 C 146.609375 46.175781 151.671875 61.355469 145.597656 74.003906 C 139.527344 86.148438 124.347656 91.714844 111.699219 85.640625 Z M 111.699219 85.640625 " fill-opacity="1" fill-rule="nonzero"/></g><path fill="#ffffff" d="M 129.914062 48.707031 C 122.324219 45.164062 113.21875 48.199219 109.675781 55.789062 C 106.132812 63.378906 109.167969 72.488281 116.757812 76.027344 C 124.347656 79.570312 133.457031 76.535156 136.996094 68.945312 C 140.539062 61.859375 137.503906 52.753906 129.914062 48.707031 Z M 129.914062 48.707031 " fill-opacity="1" fill-rule="nonzero"/></g></g></g></svg>