<svg xmlns="http://www.w3.org/2000/svg" xmlns:xlink="http://www.w3.org/1999/xlink" width="1366" zoomAndPan="magnify" viewBox="0 0 1024.5 576" height="768" preserveAspectRatio="xMidYMid meet" version="1.0"><defs><filter x="0%" y="0%" width="100%" height="100%" id="e1e8e50299"><feColorMatrix values="0 0 0 0 1 0 0 0 0 1 0 0 0 0 1 0 0 0 1 0" color-interpolation-filters="sRGB"/></filter><mask id="ca02ec0757"><g filter="url(#e1e8e50299)"><rect x="-102.45" width="1229.4" fill="#000000" y="-57.6" height="691.2" fill-opacity="0.07"/></g></mask><clipPath id="bc1065bbe9"><path d="M 0 51 L 287 51 L 287 328 L 0 328 Z M 0 51 " clip-rule="nonzero"/></clipPath><clipPath id="3c9137a876"><path d="M 5 339 L 171 339 L 171 398.421875 L 5 398.421875 Z M 5 339 " clip-rule="nonzero"/></clipPath><clipPath id="2593b285a6"><path d="M 0 106 L 111 106 L 111 240 L 0 240 Z M 0 106 " clip-rule="nonzero"/></clipPath><clipPath id="b08c81cc87"><path d="M 0 3.363281 L 97 3.363281 L 97 100 L 0 100 Z M 0 3.363281 " clip-rule="nonzero"/></clipPath><clipPath id="3042e8672e"><rect x="0" width="289" y="0" height="403"/></clipPath></defs><g mask="url(#ca02ec0757)"><g transform="matrix(1, 0, 0, 1, 0, 87)"><g clip-path="url(#3042e8672e)"><g clip-path="url(#bc1065bbe9)"><path fill="#ffffff" d="M 276.957031 51.097656 L 219.171875 51.097656 C 225.035156 57.378906 225.453125 67.425781 220.011719 74.125 L 219.59375 74.964844 L 262.71875 74.964844 L 262.71875 276.785156 L -87.328125 276.785156 L -87.328125 74.964844 L -9.863281 74.964844 L -12.796875 67.007812 C -14.46875 61.566406 -13.632812 55.703125 -10.28125 51.097656 L -101.5625 51.097656 C -107.007812 51.097656 -111.191406 55.285156 -111.191406 60.726562 L -111.191406 317.402344 C -111.191406 322.84375 -107.007812 327.03125 -101.5625 327.03125 L 276.957031 327.03125 C 282.398438 327.03125 286.585938 322.84375 286.585938 317.402344 L 286.585938 60.726562 C 286.585938 55.285156 282.398438 51.097656 276.957031 51.097656 Z M 87.695312 314.050781 C 80.996094 314.050781 75.554688 308.609375 75.554688 301.910156 C 75.554688 295.207031 80.996094 289.765625 87.695312 289.765625 C 94.394531 289.765625 99.839844 295.207031 99.839844 301.910156 C 99.839844 308.1875 94.394531 314.050781 87.695312 314.050781 Z M 87.695312 314.050781 " fill-opacity="1" fill-rule="nonzero"/></g><g clip-path="url(#3c9137a876)"><path fill="#ffffff" d="M 170.183594 385.652344 L 170.183594 394.863281 C 170.183594 396.957031 168.507812 398.632812 166.414062 398.632812 L 8.976562 398.632812 C 6.882812 398.632812 5.210938 396.957031 5.210938 394.863281 L 5.210938 385.652344 C 5.210938 383.558594 6.882812 381.882812 8.976562 381.882812 L 37.03125 381.882812 L 44.570312 339.59375 L 131.242188 339.59375 L 138.78125 381.882812 L 166.835938 381.882812 C 168.507812 381.882812 170.183594 383.558594 170.183594 385.652344 Z M 170.183594 385.652344 " fill-opacity="1" fill-rule="nonzero"/></g><path fill="#ffffff" d="M 219.59375 91.714844 L 209.542969 90.457031 C 205.773438 90.039062 202.425781 87.527344 200.75 83.757812 C 199.492188 79.988281 199.914062 76.21875 202.007812 72.871094 L 208.289062 64.914062 C 209.125 63.660156 209.125 61.984375 207.867188 60.726562 L 197.402344 50.261719 C 196.144531 49.003906 194.46875 49.003906 193.214844 49.839844 L 185.257812 56.121094 C 182.328125 58.632812 178.140625 59.054688 174.371094 57.378906 C 170.601562 56.121094 168.089844 52.773438 167.671875 49.003906 L 167.253906 39.375 C 167.253906 37.699219 165.578125 36.441406 164.320312 36.441406 L 149.25 36.441406 C 147.574219 36.441406 146.316406 37.699219 146.316406 39.375 L 145.0625 49.421875 C 144.640625 53.191406 142.128906 56.539062 138.363281 57.796875 C 134.59375 59.472656 130.824219 59.054688 127.476562 56.539062 L 119.519531 50.261719 C 118.261719 49.421875 116.589844 49.421875 115.332031 50.679688 L 104.863281 61.148438 C 103.609375 62.402344 103.609375 64.078125 104.445312 65.332031 L 110.726562 73.289062 C 113.238281 76.21875 113.65625 80.40625 111.984375 84.175781 C 110.308594 87.945312 107.375 90.457031 103.191406 90.875 L 93.140625 92.132812 C 91.464844 92.132812 90.210938 93.804688 90.210938 95.0625 L 90.210938 110.136719 C 90.210938 111.8125 91.464844 113.066406 93.140625 113.066406 L 103.191406 114.324219 C 106.957031 114.742188 110.308594 117.253906 111.984375 121.023438 C 113.65625 124.792969 112.820312 128.558594 110.726562 131.910156 L 104.445312 139.445312 C 103.609375 140.703125 103.609375 142.378906 104.863281 143.632812 L 115.332031 154.101562 C 116.589844 155.359375 118.261719 155.359375 119.519531 154.519531 L 127.476562 148.238281 C 130.40625 145.726562 134.59375 145.308594 138.363281 146.984375 C 142.128906 148.238281 144.640625 151.589844 145.0625 155.777344 L 146.316406 165.824219 C 146.316406 167.5 147.992188 168.757812 149.25 168.757812 L 164.320312 168.757812 C 165.996094 168.757812 167.253906 167.5 167.253906 165.824219 L 168.507812 155.777344 C 168.929688 152.007812 171.441406 148.660156 175.207031 146.984375 C 178.976562 145.308594 182.746094 145.726562 186.09375 148.238281 L 194.050781 154.519531 C 195.308594 155.359375 196.980469 155.359375 198.238281 154.101562 L 208.707031 143.632812 C 209.960938 142.378906 209.960938 140.703125 209.125 139.445312 L 202.84375 131.492188 C 200.332031 128.558594 199.914062 124.371094 201.585938 120.605469 C 203.261719 116.835938 206.195312 114.324219 210.378906 113.90625 L 220.429688 112.648438 C 222.105469 112.230469 223.359375 110.972656 223.359375 109.71875 L 223.359375 94.644531 C 222.523438 92.96875 221.265625 91.714844 219.59375 91.714844 Z M 156.367188 131.070312 C 140.457031 131.070312 127.476562 118.09375 127.476562 102.179688 C 127.476562 86.269531 140.457031 73.289062 156.367188 73.289062 C 172.277344 73.289062 185.257812 86.269531 185.257812 102.179688 C 185.257812 118.09375 172.277344 131.070312 156.367188 131.070312 Z M 156.367188 131.070312 " fill-opacity="1" fill-rule="nonzero"/><path fill="#ffffff" d="M 156.367188 85.011719 C 146.734375 85.011719 139.199219 92.550781 139.199219 102.179688 C 139.199219 111.8125 146.734375 119.347656 156.367188 119.347656 C 165.996094 119.347656 173.535156 111.8125 173.535156 102.179688 C 173.535156 92.550781 165.996094 85.011719 156.367188 85.011719 Z M 156.367188 85.011719 " fill-opacity="1" fill-rule="nonzero"/><g clip-path="url(#2593b285a6)"><path fill="#ffffff" d="M 106.121094 162.058594 L 96.070312 160.800781 C 92.304688 160.382812 88.953125 157.871094 87.277344 154.101562 C 86.023438 150.332031 86.441406 146.566406 88.535156 143.214844 L 94.816406 135.257812 C 95.652344 134.003906 95.652344 132.328125 94.394531 131.070312 L 83.929688 120.605469 C 82.671875 119.347656 80.996094 119.347656 79.742188 120.1875 L 71.785156 126.464844 C 68.855469 128.980469 64.667969 129.398438 60.898438 127.722656 C 57.128906 126.464844 54.617188 123.117188 54.199219 119.347656 L 52.945312 109.300781 C 52.945312 107.625 51.269531 106.367188 50.011719 106.367188 L 34.9375 106.367188 C 33.265625 106.367188 32.007812 107.625 32.007812 109.300781 L 30.75 119.347656 C 30.332031 123.117188 27.820312 126.464844 24.050781 127.722656 C 20.285156 129.398438 16.515625 128.980469 13.164062 126.464844 L 5.210938 120.1875 C 3.953125 119.347656 2.277344 119.347656 1.023438 120.605469 L -8.609375 131.492188 C -9.863281 132.746094 -9.863281 134.421875 -9.027344 135.679688 L -2.746094 143.632812 C -0.234375 146.566406 0.183594 150.75 -1.488281 154.519531 C -3.164062 158.289062 -6.09375 160.800781 -10.28125 161.21875 L -20.332031 162.476562 C -22.007812 162.476562 -23.261719 164.152344 -23.261719 165.40625 L -23.261719 180.480469 C -23.261719 182.15625 -22.007812 183.410156 -20.332031 183.410156 L -10.28125 184.667969 C -6.515625 185.085938 -3.164062 187.597656 -1.488281 191.367188 C 0.183594 195.136719 -0.652344 198.902344 -2.746094 202.253906 L -8.609375 209.789062 C -9.445312 211.046875 -9.445312 212.722656 -8.1875 213.976562 L 2.277344 224.445312 C 3.535156 225.703125 5.210938 225.703125 6.464844 224.863281 L 14.421875 218.582031 C 17.351562 216.070312 21.539062 215.652344 25.308594 217.328125 C 29.078125 218.582031 31.589844 221.933594 32.007812 226.121094 L 33.265625 236.171875 C 33.265625 237.84375 34.9375 239.101562 36.195312 239.101562 L 51.269531 239.101562 C 52.945312 239.101562 54.199219 237.84375 54.199219 236.171875 L 55.457031 226.121094 C 55.875 222.351562 58.386719 219.003906 62.15625 217.328125 C 65.921875 215.652344 69.691406 216.070312 73.042969 218.582031 L 80.996094 224.863281 C 82.253906 225.703125 83.929688 225.703125 85.183594 224.445312 L 95.652344 213.976562 C 96.910156 212.722656 96.910156 211.046875 96.070312 209.789062 L 89.789062 201.835938 C 87.277344 198.902344 86.859375 194.71875 88.535156 190.949219 C 90.210938 187.179688 93.140625 184.667969 97.328125 184.25 L 107.375 182.992188 C 109.050781 182.574219 110.308594 181.316406 110.308594 180.0625 L 110.308594 164.988281 C 109.050781 163.3125 107.796875 162.058594 106.121094 162.058594 Z M 43.3125 201.417969 C 27.402344 201.417969 14.421875 188.4375 14.421875 172.523438 C 14.421875 156.613281 27.402344 143.632812 43.3125 143.632812 C 59.222656 143.632812 72.203125 156.613281 72.203125 172.523438 C 71.785156 188.4375 59.222656 201.417969 43.3125 201.417969 Z M 43.3125 201.417969 " fill-opacity="1" fill-rule="nonzero"/></g><path fill="#ffffff" d="M 43.3125 155.359375 C 33.683594 155.359375 26.144531 162.894531 26.144531 172.523438 C 26.144531 182.15625 33.683594 189.691406 43.3125 189.691406 C 52.945312 189.691406 60.480469 182.15625 60.480469 172.523438 C 60.480469 162.894531 52.945312 155.359375 43.3125 155.359375 Z M 43.3125 155.359375 " fill-opacity="1" fill-rule="nonzero"/><g clip-path="url(#b08c81cc87)"><path fill="#ffffff" d="M 93.558594 64.914062 L 87.277344 60.726562 C 84.765625 59.054688 83.511719 56.539062 83.929688 53.609375 C 83.929688 50.679688 85.601562 48.167969 88.535156 46.910156 L 95.234375 43.5625 C 96.070312 43.140625 96.910156 41.886719 96.488281 40.628906 L 92.722656 30.160156 C 91.882812 29.742188 90.628906 28.90625 89.789062 29.324219 L 82.671875 31 C 79.742188 31.835938 77.230469 30.582031 75.136719 28.488281 C 73.042969 26.394531 72.625 23.460938 73.460938 20.53125 L 75.972656 13.414062 C 76.390625 12.15625 75.972656 10.902344 74.714844 10.480469 L 64.667969 5.457031 C 63.832031 5.039062 62.574219 5.457031 61.738281 6.292969 L 57.550781 12.574219 C 55.875 15.085938 53.363281 16.34375 50.429688 15.925781 C 47.5 15.925781 44.988281 14.25 43.730469 11.738281 L 40.382812 5.039062 C 39.964844 3.78125 38.707031 3.363281 37.449219 3.78125 L 26.984375 7.550781 C 25.726562 7.96875 25.308594 9.226562 25.308594 10.0625 L 26.984375 17.179688 C 27.402344 20.113281 26.5625 22.625 24.472656 24.71875 C 22.378906 26.8125 19.445312 27.230469 16.515625 26.394531 L 9.398438 23.882812 C 8.140625 23.460938 7.304688 23.882812 6.464844 25.136719 L 1.859375 34.765625 C 1.441406 36.023438 1.859375 36.859375 2.699219 37.699219 L 8.976562 41.886719 C 11.492188 43.5625 12.746094 46.074219 12.328125 49.003906 C 12.328125 51.933594 10.652344 54.445312 8.140625 55.703125 L 1.441406 59.054688 C 0.183594 59.472656 -0.234375 60.726562 0.183594 61.984375 L 3.535156 72.453125 C 3.953125 73.707031 5.210938 74.125 6.046875 74.125 L 13.585938 72.453125 C 16.515625 71.613281 19.027344 72.871094 21.121094 74.964844 C 23.214844 77.058594 23.632812 79.988281 22.796875 82.917969 L 20.285156 90.039062 C 19.863281 91.292969 20.285156 92.550781 21.539062 92.96875 L 31.589844 97.992188 C 32.425781 98.414062 34.101562 97.992188 34.519531 97.15625 L 38.707031 90.875 C 40.382812 88.363281 42.894531 87.105469 45.824219 87.527344 C 48.757812 87.527344 51.269531 89.199219 52.523438 91.714844 L 55.875 98.414062 C 56.292969 99.667969 57.550781 100.085938 58.804688 99.667969 L 69.273438 95.898438 C 70.53125 95.480469 70.949219 94.226562 70.949219 93.386719 L 69.273438 86.269531 C 68.4375 83.339844 69.691406 80.828125 71.785156 78.734375 C 73.878906 76.640625 76.808594 76.21875 79.742188 77.058594 L 86.859375 79.570312 C 88.117188 79.988281 88.953125 79.570312 89.789062 78.3125 L 94.394531 68.683594 C 94.816406 67.007812 94.394531 65.753906 93.558594 64.914062 Z M 39.125 70.777344 C 28.65625 65.753906 24.472656 53.191406 29.496094 42.722656 C 34.519531 32.253906 47.082031 28.066406 57.550781 33.09375 C 68.015625 38.117188 72.203125 50.679688 67.179688 61.148438 C 62.15625 71.195312 49.59375 75.800781 39.125 70.777344 Z M 39.125 70.777344 " fill-opacity="1" fill-rule="nonzero"/></g><path fill="#ffffff" d="M 54.199219 40.210938 C 47.917969 37.28125 40.382812 39.792969 37.449219 46.074219 C 34.519531 52.355469 37.03125 59.890625 43.3125 62.820312 C 49.59375 65.753906 57.128906 63.238281 60.0625 56.960938 C 62.992188 51.097656 60.480469 43.5625 54.199219 40.210938 Z M 54.199219 40.210938 " fill-opacity="1" fill-rule="nonzero"/></g></g></g></svg>